<svg version="1.0" xmlns="http://www.w3.org/2000/svg"
 width="1849.000000pt" height="1849.000000pt" viewBox="0 0 1849.000000 1849.000000"
 preserveAspectRatio="xMidYMid meet">

<g transform="translate(0.000000,1849.000000) scale(0.100000,-0.100000)"
fill="#000000" stroke="none">
<path d="M8615 18484 c-22 -2 -119 -11 -215 -20 -1082 -95 -2244 -432 -3310
-960 -1066 -527 -1989 -1223 -2701 -2034 -762 -870 -1321 -1779 -1734 -2820
-368 -927 -580 -1851 -646 -2811 -16 -241 -6 -1183 15 -1394 76 -760 210
-1392 440 -2080 448 -1339 1144 -2522 2052 -3490 328 -350 817 -771 1289
-1110 1320 -950 2943 -1570 4520 -1730 308 -31 420 -35 925 -35 506 0 614 4
930 36 1171 117 2426 511 3535 1110 837 451 1651 1068 2209 1673 999 1083
1678 2232 2129 3606 215 655 354 1323 417 1999 17 192 20 296 20 821 0 651 -8
806 -66 1220 -123 889 -405 1855 -747 2560 -520 1073 -1101 1946 -1781 2678
-416 448 -1220 1077 -1871 1464 -1066 634 -2286 1071 -3470 1242 -490 71 -537
74 -1250 76 -357 1 -668 1 -690 -1z m4920 -5593 c28 -14 81 -55 118 -92 115
-114 153 -230 144 -436 -4 -108 -68 -414 -771 -3723 -421 -1983 -778 -3651
-792 -3707 -106 -428 -321 -562 -684 -424 -126 48 -12 -34 -2045 1475 -214
159 -394 289 -401 290 -6 1 -258 -237 -559 -529 -301 -291 -582 -556 -624
-587 -128 -97 -288 -168 -378 -168 -18 0 -33 5 -33 10 0 17 180 2323 183 2342
1 9 457 432 1012 940 556 508 1529 1397 2163 1976 633 579 1159 1066 1167
1082 36 70 6 103 -98 108 -67 3 -77 1 -147 -35 -41 -22 -739 -458 -1550 -969
-2833 -1785 -3821 -2406 -3838 -2411 -10 -2 -535 154 -1168 347 -632 193
-1186 362 -1230 376 -104 31 -195 90 -230 151 -71 120 -1 279 172 393 100 66
167 93 989 410 402 155 984 380 1295 500 311 120 1011 390 1555 600 545 210
1661 641 2480 957 820 316 1744 673 2055 793 311 120 619 239 685 265 210 81
267 95 380 92 82 -2 109 -6 150 -26z"/>
</g>
</svg>
