<svg version="1.0" xmlns="http://www.w3.org/2000/svg"
 width="1500.000000pt" height="1500.000000pt" viewBox="0 0 1500.000000 1500.000000"
 preserveAspectRatio="xMidYMid meet">

<g transform="translate(0.000000,1500.000000) scale(0.100000,-0.100000)"
fill="#000000" stroke="none">
<path d="M7245 14894 c-22 -2 -110 -9 -195 -15 -903 -63 -1837 -325 -2675
-749 -1193 -604 -2186 -1516 -2890 -2655 -36 -59 -79 -130 -95 -158 -15 -29
-49 -88 -75 -132 -66 -112 -252 -493 -323 -660 -55 -128 -162 -406 -166 -430
-1 -5 -4 -14 -7 -20 -5 -9 -42 -121 -94 -285 -39 -125 -119 -432 -131 -500 -2
-14 -13 -63 -24 -110 -10 -47 -22 -101 -25 -120 -2 -19 -11 -70 -20 -114 -8
-43 -17 -94 -20 -115 -69 -484 -79 -622 -79 -1086 -1 -214 3 -448 7 -520 8
-143 34 -400 44 -455 4 -19 6 -38 5 -42 -3 -12 68 -419 94 -537 168 -761 411
-1394 792 -2066 l85 -150 -69 -205 c-37 -113 -70 -209 -71 -215 -8 -28 -168
-504 -178 -530 -7 -16 -45 -129 -85 -250 -40 -121 -76 -229 -81 -240 -5 -11
-78 -227 -163 -480 -137 -409 -288 -858 -562 -1670 -46 -137 -83 -252 -82
-256 2 -3 374 112 828 257 454 146 1073 343 1375 440 846 270 1247 398 1520
486 l251 81 184 -96 c888 -459 1839 -721 2863 -788 204 -13 865 -7 1047 11
603 56 1144 168 1675 345 1527 510 2836 1515 3730 2865 299 451 565 972 735
1440 29 80 61 165 70 190 49 123 165 536 219 782 54 246 111 594 126 768 3 36
8 79 10 95 6 39 13 136 25 368 34 639 -32 1341 -186 1992 -95 397 -254 880
-395 1192 -17 38 -40 91 -52 118 -47 109 -248 498 -325 630 -571 980 -1335
1789 -2277 2411 -1054 695 -2257 1096 -3525 1174 -148 9 -714 11 -815 4z m990
-1213 c739 -80 1389 -268 2034 -586 444 -220 827 -468 1196 -775 126 -105 415
-370 452 -415 14 -16 62 -68 107 -115 45 -47 108 -116 141 -155 33 -38 62 -72
65 -75 18 -15 259 -332 328 -430 326 -466 581 -976 768 -1535 35 -104 64 -190
65 -190 0 0 2 -7 4 -15 2 -8 24 -95 49 -193 94 -368 161 -792 181 -1154 8
-145 5 -597 -6 -743 -28 -403 -100 -829 -201 -1190 -36 -130 -106 -358 -118
-385 -5 -11 -34 -87 -66 -169 -587 -1546 -1826 -2805 -3374 -3428 -576 -232
-1169 -368 -1818 -418 -203 -16 -729 -16 -897 -1 -985 88 -1866 379 -2686 887
-75 46 -140 84 -146 84 -5 0 -86 -24 -179 -54 -93 -30 -430 -138 -749 -240
-319 -101 -757 -241 -973 -310 -217 -69 -398 -126 -402 -126 -5 0 20 87 56
193 36 105 67 200 69 209 2 9 8 25 13 35 5 10 143 417 306 905 l298 887 -119
178 c-191 286 -255 399 -413 718 -105 215 -196 429 -259 610 -17 50 -34 97
-38 105 -3 8 -7 20 -8 25 -2 6 -19 62 -39 125 -31 98 -129 474 -141 543 -45
248 -57 318 -60 347 -59 493 -73 775 -55 1135 16 307 16 307 29 410 6 44 13
100 15 125 22 204 111 625 191 895 180 615 482 1238 855 1769 349 496 828 987
1325 1357 931 693 2001 1089 3185 1179 206 15 800 4 1015 -19z"/>
<path d="M5044 11200 c-132 -34 -226 -92 -358 -219 -365 -352 -564 -726 -643
-1206 -26 -156 -25 -538 1 -680 35 -194 119 -492 170 -609 8 -17 24 -58 36
-91 66 -172 246 -510 384 -720 40 -60 113 -173 161 -250 694 -1097 1587 -1999
2485 -2509 444 -253 1401 -642 1869 -761 245 -62 415 -72 611 -37 63 11 155
26 203 32 229 29 550 169 817 358 115 81 313 276 358 354 104 177 198 527 209
778 7 158 -3 196 -61 247 -56 49 -758 432 -1281 697 -259 132 -365 171 -453
164 -82 -6 -123 -35 -218 -155 -114 -144 -220 -267 -389 -453 -259 -285 -290
-309 -390 -310 -77 0 -111 13 -378 146 -298 149 -414 215 -607 345 -622 418
-1105 935 -1527 1634 -107 178 -162 291 -170 347 -10 83 15 127 151 268 159
165 329 358 370 423 18 29 55 93 81 143 38 73 48 104 52 155 5 74 1 89 -111
384 -43 110 -84 220 -92 245 -9 25 -22 59 -29 75 -7 17 -54 145 -105 285 -145
399 -258 689 -287 739 -38 66 -102 131 -148 152 -27 13 -64 19 -115 19 -41 0
-138 7 -215 15 -188 19 -294 18 -381 -5z"/>
</g>
</svg>
